<svg xmlns="http://www.w3.org/2000/svg" shape-rendering="geometricPrecision" text-rendering="geometricPrecision" image-rendering="optimizeQuality" fill-rule="evenodd" clip-rule="evenodd" viewBox="0 0 360 511.48"><path fill="#D0401B" d="m144.83 306.61 151.45-26.08L360 429.51l-78.8-.9-64.75 52.53z"/><path fill="#F60" d="m231.94 290.08-162.37 4.3L0 459.86l78.8-.91 64.75 52.53z"/><path fill="#F5C800" d="M183.21.03c9.35-.4 16.72 2.86 24.15 7.59 9.44 5.98 20.06 17.8 33.17 25.3 18.45 10.54 52.61-4 70.11 21.99 10.21 15.16 10.69 27.04 11.45 38.78.82 12.67 3.04 24.32 16 41.47 21.47 28.38 25.94 47.27 14.88 66.96-7.54 13.42-23.41 20.88-27.09 29.38-7.81 18.09.83 31.72-9.87 52.81-7.43 14.62-18.89 24.26-34.16 29.18-12.88 4.14-25.8-1.85-36.1 2.48-18.12 7.61-31.48 25.3-45.89 29.77-5.57 1.73-11.11 2.58-16.65 2.54-5.53.04-11.08-.81-16.64-2.54-14.42-4.47-27.78-22.16-45.9-29.77-10.3-4.33-23.22 1.66-36.1-2.48-15.26-4.92-26.73-14.56-34.16-29.18-10.7-21.09-2.06-34.72-9.87-52.81-3.68-8.5-19.55-15.96-27.09-29.38-11.06-19.69-6.58-38.58 14.88-66.96 12.96-17.15 15.18-28.8 16-41.47.76-11.74 1.24-23.62 11.45-38.78 17.5-25.99 51.66-11.45 70.11-21.99 13.12-7.5 23.73-19.32 33.17-25.3 7.44-4.73 14.81-7.99 24.15-7.59z"/><path fill="#FFDD61" d="M183.21.04c9.35-.41 16.71 2.86 24.15 7.58 9.44 5.98 20.06 17.8 33.17 25.3 14.67 8.38 39.28.91 57.54 10.56L91.95 314.9c-2.45-.2-4.92-.62-7.38-1.41-15.27-4.92-26.73-14.55-34.16-29.18-10.7-21.09-2.06-34.72-9.87-52.81-3.68-8.5-19.55-15.96-27.09-29.38-11.06-19.69-6.58-38.58 14.87-66.96 12.97-17.14 15.19-28.8 16.01-41.47.76-11.74 1.24-23.62 11.44-38.78 17.51-26 51.68-11.45 70.12-21.99 13.12-7.5 23.74-19.32 33.17-25.3C166.5 2.9 173.87-.37 183.21.04z"/><circle fill="#E37E00" cx="182.71" cy="176.83" r="130.04"/><circle fill="#fff" cx="182.71" cy="176.83" r="103.95"/><path fill="#EDEDED" d="M182.71 72.88c27.48 0 52.49 10.67 71.07 28.09l-127.44 163.2c-4.62-2.98-8.99-6.33-13.07-9.99-21.18-19.02-34.51-46.63-34.51-77.35 0-57.41 46.54-103.95 103.95-103.95z"/><path fill-rule="nonzero" d="m145.36 154.4-4.38-25.11c14.16-4.28 28.27-6.41 42.32-6.41 5.62 0 10.31.17 14.08.5 3.76.34 7.67 1.18 11.72 2.53 4.04 1.35 7.24 3.21 9.6 5.57 5.4 5.39 8.09 13.65 8.09 24.78s-3.14 19.33-9.43 24.62c-6.3 5.28-19.56 11.35-39.8 18.2v4.73h47.55v26.97h-86.49v-21.07c0-6.3 1.18-12.31 3.54-18.05 1.46-3.25 5-7.19 10.62-11.79 3.03-2.59 7.11-5.06 12.22-7.42 5.11-2.37 9.95-4.59 14.5-6.67 4.56-2.08 8.23-3.79 11.05-5.14v-9.1c-5.06-.56-9.72-.84-14-.84-10.34 0-20.74 1.23-31.19 3.7z"/></svg>