<svg xmlns="http://www.w3.org/2000/svg" shape-rendering="geometricPrecision" text-rendering="geometricPrecision" image-rendering="optimizeQuality" fill-rule="evenodd" clip-rule="evenodd" viewBox="0 0 360 511.48"><path fill="#D0401B" d="m144.83 306.61 151.45-26.08L360 429.51l-78.8-.9-64.75 52.53z"/><path fill="#F60" d="m231.94 290.08-162.37 4.3L0 459.86l78.8-.91 64.75 52.53z"/><path fill="#F5C800" d="M183.21.03c9.35-.4 16.72 2.86 24.15 7.59 9.44 5.98 20.06 17.8 33.17 25.3 18.45 10.54 52.62-4 70.12 21.99 10.2 15.16 10.68 27.04 11.44 38.78.82 12.67 3.04 24.32 16.01 41.47 21.46 28.38 25.93 47.27 14.87 66.96-7.54 13.42-23.41 20.88-27.09 29.38-7.81 18.09.83 31.72-9.87 52.81-7.43 14.62-18.89 24.26-34.16 29.18-12.87 4.14-25.79-1.85-36.1 2.48-18.12 7.61-31.48 25.3-45.89 29.77-5.57 1.73-11.11 2.58-16.65 2.54-5.53.04-11.08-.81-16.64-2.54-14.42-4.47-27.78-22.16-45.89-29.77-10.31-4.33-23.23 1.66-36.11-2.48-15.26-4.92-26.73-14.56-34.16-29.18-10.7-21.09-2.05-34.72-9.87-52.81-3.67-8.5-19.55-15.96-27.09-29.38-11.05-19.69-6.58-38.58 14.88-66.96 12.96-17.15 15.18-28.8 16-41.47.76-11.74 1.24-23.62 11.45-38.78 17.5-25.99 51.66-11.45 70.11-21.99 13.12-7.5 23.73-19.32 33.17-25.3 7.44-4.73 14.81-7.99 24.15-7.59z"/><path fill="#FFDD61" d="M183.21.04c9.35-.41 16.71 2.86 24.15 7.58 9.44 5.98 20.06 17.8 33.17 25.3 14.67 8.38 39.28.91 57.55 10.56L91.95 314.9c-2.45-.2-4.92-.62-7.38-1.41-15.27-4.92-26.73-14.55-34.16-29.18-10.7-21.09-2.05-34.72-9.87-52.81-3.67-8.5-19.55-15.96-27.09-29.38-11.06-19.69-6.58-38.58 14.88-66.96 12.96-17.14 15.18-28.8 16-41.47.76-11.74 1.24-23.62 11.44-38.78 17.51-26 51.68-11.45 70.12-21.99 13.12-7.5 23.74-19.32 33.17-25.3C166.5 2.9 173.87-.37 183.21.04z"/><circle fill="#E37E00" cx="182.71" cy="176.83" r="130.04"/><circle fill="#fff" cx="182.71" cy="176.83" r="103.95"/><path fill="#EDEDED" d="M182.71 72.88c27.48 0 52.49 10.67 71.07 28.09l-127.44 163.2c-4.62-2.98-8.99-6.33-13.07-9.99-21.18-19.02-34.51-46.63-34.51-77.35 0-57.41 46.54-103.95 103.95-103.95z"/><path fill-rule="nonzero" d="M190.04 161.24v-10.96c-3.37-.56-8.83-.84-16.36-.84-7.53 0-16.91 1.18-28.15 3.54l-4.39-24.95c13.72-4.28 26.98-6.41 39.79-6.41 11.02 0 19 .67 23.94 2.02 4.95 1.35 8.61 2.98 10.96 4.89 5.18 4.38 7.76 11.01 7.76 19.89 0 11.24-4.67 19.34-13.99 24.28v.85c11.13 4.6 16.69 12.98 16.69 25.12 0 5.95-.93 11.04-2.78 15.25-1.86 4.22-4.19 7.48-7 9.79-2.81 2.3-6.52 4.13-11.13 5.48-6.86 1.91-16.49 2.86-28.91 2.86-12.42 0-24.87-1.46-37.35-4.38l4.72-27.82c10.68 2.58 19.73 3.87 27.15 3.87 7.42 0 13.77-.33 19.05-1.01v-10.78l-29-2.87v-24.45l29-3.37z"/></svg>